<?xml version="1.0"?>
<svg xmlns:rdf="http://www.w3.org/1999/02/22-rdf-syntax-ns#" xmlns="http://www.w3.org/2000/svg" xmlns:cc="http://web.resource.org/cc/" xmlns:xlink="http://www.w3.org/1999/xlink" xmlns:dc="http://purl.org/dc/elements/1.1/" space="preserve" overflow="visible" height="709.09" width="527.54" enable-background="new 0 0 527.544 709.092" viewBox="0 0 527.544 709.092">
 <g id="Layer_1" clip-rule="evenodd" fill-rule="evenodd">
  <linearGradient id="XMLID_1_" y2=".00048828" gradientUnits="userSpaceOnUse" x2="263.77" y1="709.02" x1="263.77">
   <stop stop-color="#fff" offset="0"/>
   <stop stop-color="#f8e6e6" offset=".2606"/>
   <stop stop-color="#e9b5b5" offset=".5228"/>
   <stop stop-color="#cd5151" offset=".7425"/>
   <stop stop-color="#be2020" offset=".9079"/>
   <stop stop-color="#b70707" offset="1"/>
  </linearGradient>
  <path d="m0 0h527.54v709.02h-527.54v-709.02z" fill="url(#XMLID_1_)"/>
  <linearGradient id="XMLID_2_" y2="105.04" gradientUnits="userSpaceOnUse" x2="355.23" y1="268.21" x1="160.77">
   <stop stop-color="#BFBFBF" offset="0"/>
   <stop stop-color="#D4D4D4" offset=".2734"/>
   <stop stop-color="#F3F3F3" offset=".7393"/>
   <stop stop-color="#fff" offset="1"/>
  </linearGradient>
  <path d="m130.97 186.62c0 70.02 56.88 126.79 127.04 126.79 70.127 0 127.01-56.772 127.01-126.79s-56.88-126.79-127.01-126.79c-70.16 0.002-127.04 56.77-127.04 126.79z" fill="url(#XMLID_2_)"/>
  <path stroke="#000" stroke-width=".036" stroke-miterlimit="10" d="m208.4 135.72c7.848 21.852 13.752 37.98 18.144 49.068 4.284 10.98 6.804 16.524 7.56 16.776-3.06-8.928-6.552-18.576-10.872-29.628-4.31-11.13-9.21-22.97-14.83-36.22z"/>
  <path stroke="#000" stroke-width=".036" stroke-miterlimit="10" d="m291.42 129.78c-2.268 11.88-4.68 23.22-7.236 34.596-2.592 11.268-5.292 22.14-8.243 32.904 3.384-6.876 6.3-15.696 8.892-27 2.56-11.38 4.75-24.7 6.59-40.5z"/>
  <path stroke="#000" stroke-width=".036" stroke-miterlimit="10" d="m308.88 221.33c6.624-7.704 13.212-14.544 19.764-21.06 6.553-6.552 12.925-12.348 19.404-17.784-5.832 6.876-11.88 13.572-18.432 20.088-6.55 6.51-13.46 12.63-20.73 18.75z"/>
  <path stroke="#000" stroke-width=".036" stroke-miterlimit="10" d="m317.09 259.96l33.948-6.264c-4.68-0.216-9.792 0.324-15.48 1.332-5.76 1.07-11.74 2.62-18.47 4.93z"/>
  <path stroke="#000" stroke-width=".036" stroke-miterlimit="10" d="m358.27 250.42c2.592-0.792 4.68-1.656 6.264-2.304 1.548-0.684 2.484-1.44 2.952-1.979-2.269 2.376-3.996 3.816-5.58 4.608-1.61 0.67-2.69 0.57-3.63-0.33z"/>
  <path stroke="#000" stroke-width=".036" stroke-miterlimit="10" d="m355.32 247.43c2.664-3.78 4.284-9.612 5.256-17.784 0.899-8.28 1.872-20.916 0-30.96-2.017-10.152-5.22-19.296-11.844-28.98-6.769-9.72-17.173-21.168-28.009-28.656-10.943-7.488-23.724-13.14-36.54-16.128-12.924-3.168-26.388-3.78-39.852-1.98-13.644 1.836-28.872 6.552-40.536 13.176-11.664 6.588-21.024 15.12-28.656 26.028 1.008-3.492 3.384-7.092 7.272-11.196s9.936-9.468 15.804-13.176c5.688-3.96 12.384-7.092 18.432-9.54 6.012-2.376 11.556-3.708 17.46-4.968 5.796-1.44 10.26-2.952 17.136-3.276 6.912-0.468 15.768-0.144 23.364 0.972 7.38 1.044 12.96 2.736 20.771 5.616 7.668 2.808 17.641 6.516 25.344 11.52 7.74 5.112 14.725 12.276 20.412 18.432 5.544 5.904 9.072 11.448 12.528 17.46 3.24 5.904 5.652 10.008 7.236 18.432 1.548 8.532 2.808 22.572 1.979 31.968-1.03 9.19-3.37 16.82-7.55 23.05z"/>
  <path stroke="#000" stroke-width=".036" stroke-miterlimit="10" d="m366.19 196.96c3.096-1.188 5.939-3.492 8.531-6.912 2.557-3.564 4.824-7.992 6.948-13.824-2.556 5.832-5.04 10.26-7.596 13.824-2.59 3.41-5.21 5.72-7.88 6.91z"/>
  <path stroke="#000" stroke-width=".036" stroke-miterlimit="10" d="m343.44 151.52c3.815-4.644 7.056-10.152 9.575-16.812 2.484-6.768 4.393-14.256 5.58-23.04-2.124 9.216-4.428 16.92-6.912 23.688-2.56 6.66-5.26 11.95-8.25 16.16z"/>
  <path stroke="#000" stroke-width=".036" stroke-miterlimit="10" d="m297 67.788c1.332 5.94 1.62 13.356 1.008 22.392-0.647 9.108-2.34 19.368-4.932 31.608 3.456-11.088 5.58-20.844 6.228-29.952 0.61-9.074-0.11-16.958-2.31-24.05z"/>
  <path stroke="#000" stroke-width=".036" stroke-miterlimit="10" d="m228.17 66.78c-0.18 7.848 0.396 16.092 1.332 24.732 1.044 8.604 2.448 17.604 4.608 27-1.224-9.72-2.268-18.648-3.276-27.36-1.08-8.674-1.83-16.702-2.66-24.37z"/>
  <path stroke="#000" stroke-width=".036" stroke-miterlimit="10" d="m166.93 109.94c3.204 9.828 6.012 17.46 8.568 23.04 2.556 5.508 4.608 8.964 6.552 10.224-5.04-11.08-10.08-22.17-15.12-33.26z"/>
  <path d="m309.56 256.72c1.979-9.972 2.231-13.14-0.469-23.437-2.699-10.332-3.996-10.224-10.296-17.82-6.336-7.632-6.588-8.46-15.012-12.672s-7.848-3.852-18.756-4.212-13.356-1.404-24.84 2.808c-11.484 4.248-13.356 6.588-21.096 14.076s-7.38 6.804-9.828 15.948c-2.484 9.108-2.7 10.404 0 20.592 2.7 10.224 10.764 20.16 10.764 20.16l-26.568 436.93 163.86-0.26-56.16-435.74s6.44-6.45 8.42-16.38z" fill="#D1D1D1"/>
  <linearGradient id="XMLID_3_" y2="453.52" gradientUnits="userSpaceOnUse" x2="336.01" y1="458.3" x1="281.38">
   <stop stop-color="#ccc" offset="0"/>
   <stop stop-color="#D4D4D4" offset=".133"/>
   <stop stop-color="#F3F3F3" offset=".6889"/>
   <stop stop-color="#fff" offset="1"/>
  </linearGradient>
  <path d="m303.3 708.84l-26.06-412.74c-2.593-14.652-4.32-28.404-5.58-41.832-1.26-13.5-2.269-29.376-1.656-38.196 0.54-8.855 2.34-13.644 5.256-14.508 5.437-0.576 10.729 1.152 16.021 5.184 5.22 4.068 11.987 11.376 15.443 18.72 3.385 7.344 5.473 16.308 4.752 24.516-0.863 8.064-4.14 15.588-9.828 23.256l56.7 435.6h-55.04z" fill="url(#XMLID_3_)"/>
  <path stroke="#000" stroke-width=".036" stroke-miterlimit="10" d="m219.96 286.7c-2.7-3.06-4.572-7.236-5.616-12.528-1.044-5.4-2.556-12.888-0.648-19.404 1.836-6.624 6.048-14.508 11.52-19.764 5.364-5.256 12.456-9.9 20.736-11.844 8.244-2.196 20.052-2.268 28.332-0.36 8.136 1.872 15.408 7.56 20.412 12.204 4.824 4.608 6.947 9.54 8.892 15.479 1.98 5.796 2.988 13.752 2.628 19.44-0.468 5.652-2.376 10.224-5.58 14.148l-0.647-2.304c2.7-3.816 4.392-7.992 4.932-12.528 0.504-4.572-0.324-10.008-1.656-14.796-1.476-4.896-3.996-10.656-6.588-14.508-2.664-3.996-5.832-6.444-9.216-8.892-3.42-2.592-5.904-4.572-11.196-5.94-5.436-1.44-14.292-2.412-20.736-1.944-6.552 0.504-12.024 1.692-17.784 4.932-5.832 3.168-12.528 8.856-16.488 14.148-4.104 5.22-6.372 11.448-7.236 17.136-0.864 5.616 1.296 12.348 2.304 16.452 0.864 4.032 2.052 6.516 3.276 7.596 0.14 1.07 0.25 2.15 0.39 3.26z"/>
  <path stroke="#000" stroke-width=".036" stroke-miterlimit="10" d="m218.7 314.71c-2.88-3.132-4.932-7.128-6.012-12.528-1.26-5.436-2.592-12.888-0.684-19.44 1.944-6.624 6.48-14.508 12.348-19.764 5.832-5.256 13.392-9.9 22.284-11.844 8.892-2.196 21.492-2.304 30.419-0.324 8.82 1.944 16.561 7.488 21.96 12.168 5.148 4.608 7.488 9.54 9.54 15.48 2.053 5.796 3.276 13.752 2.845 19.44-0.504 5.616-2.557 10.296-6.013 14.184l-0.72-2.304c2.916-3.816 4.68-7.992 5.292-12.528 0.54-4.68-0.324-9.9-1.764-14.832-1.513-4.968-4.284-10.584-7.057-14.472-2.951-3.996-6.264-6.444-9.936-8.892-3.708-2.592-6.372-4.572-12.024-5.94-5.867-1.476-15.372-2.412-22.284-1.98-6.912 0.396-12.996 1.764-19.08 4.932-6.192 3.204-13.428 8.856-17.676 14.184-4.356 5.256-6.912 11.376-7.812 17.1-0.972 5.58 1.476 12.42 2.484 16.488 1.044 4.068 2.124 6.408 3.528 7.56 0.11 1.07 0.22 2.19 0.36 3.3z"/>
  <path stroke="#000" stroke-width=".036" stroke-miterlimit="10" d="m240.37 225.61l0.648 5.94 3.96 11.844 1.116-1.332-3.744-10.512-0.396-6.192-1.59 0.25z"/>
  <path stroke="#000" stroke-width=".036" stroke-miterlimit="10" d="m286.24 229.5l-0.973 5.256-4.752 6.336 0.721 0.864 5.256-7.092 0.863-5.004-1.12-0.37z"/>
  <path stroke="#000" stroke-width=".036" stroke-miterlimit="10" d="m223.16 256.1c0.792-3.78 2.376-7.2 4.896-10.26 2.556-3.312 5.976-6.156 9.972-8.388 3.78-2.16 7.812-3.96 13.068-4.428 5.328-0.612 11.196-0.144 18.288 1.116-4.824-0.468-8.604-0.756-11.34-0.72-2.844 0-3.06 0-5.112 0.828-2.196 0.792-6.948 4.032-7.308 4.032-0.36-0.144 5.184-3.924 5.112-4.392-0.216-0.504-3.456 0.36-5.976 1.476-2.556 0.936-6.264 2.628-9.036 4.644-2.844 2.052-5.58 4.536-7.668 7.308-2.11 2.7-3.7 5.58-4.89 8.78z"/>
  <path stroke="#000" stroke-width=".036" stroke-miterlimit="10" d="m240.12 253.69l0.648 5.904 3.96 11.88 1.116-1.332-3.744-10.548-0.396-6.192-1.59 0.29z"/>
  <path stroke="#000" stroke-width=".036" stroke-miterlimit="10" d="m290.74 257.94l-0.973 5.256-4.752 6.336 0.721 0.828 5.256-7.056 0.863-5.004-1.12-0.37z"/>
  <path stroke="#000" stroke-width=".036" stroke-miterlimit="10" d="m223.52 281.23c0.9-3.78 2.556-7.2 5.4-10.26 2.736-3.24 6.696-6.264 11.052-8.388 4.212-2.196 8.568-3.852 14.436-4.392 5.868-0.576 12.384-0.216 20.231 1.08-5.327-0.576-9.504-0.72-12.527-0.72-3.096 0-3.42-0.036-5.688 0.864-2.268 0.828-7.776 3.924-8.064 3.996-0.468-0.144 5.76-3.924 5.652-4.392-0.324-0.504-3.78 0.36-6.624 1.476-2.916 0.936-6.84 2.628-9.972 4.644-3.06 2.052-6.264 4.536-8.496 7.308-2.41 2.7-4.06 5.58-5.4 8.78z"/>
  <path stroke="#000" stroke-width=".036" stroke-miterlimit="10" d="m220.18 270.72c-3.78-4.14-6.479-8.928-8.388-14.508-2.016-5.688-3.6-12.888-2.952-18.972 0.684-6.3 3.06-12.132 7.128-17.496 4.068-5.4 10.188-10.584 16.992-14.04 6.696-3.636 14.616-6.084 22.932-6.66 8.244-0.684 18.144 0.36 26.1 3.708 7.775 3.528 14.544 9 20.448 16.992-1.908-3.996-4.572-7.56-8.137-10.836-3.636-3.42-6.948-6.516-13.284-8.604-6.479-2.088-16.812-4.068-24.875-3.456-8.208 0.54-17.352 4.176-23.4 6.876-5.976 2.52-8.676 4.932-12.564 8.892-4.14 3.888-9.36 8.568-11.34 15.012-2.016 6.444-2.412 16.056-0.504 23.4 1.94 7.21 5.75 13.72 11.84 19.7z"/>
 </g>
 <metadata>
  <rdf:RDF>
   <cc:Work>
    <dc:format>image/svg+xml</dc:format>
    <dc:type rdf:resource="http://purl.org/dc/dcmitype/StillImage"/>
    <cc:license rdf:resource="http://creativecommons.org/licenses/publicdomain/"/>
    <dc:publisher>
     <cc:Agent rdf:about="http://openclipart.org/">
      <dc:title>Openclipart</dc:title>
     </cc:Agent>
    </dc:publisher>
   </cc:Work>
   <cc:License rdf:about="http://creativecommons.org/licenses/publicdomain/">
    <cc:permits rdf:resource="http://creativecommons.org/ns#Reproduction"/>
    <cc:permits rdf:resource="http://creativecommons.org/ns#Distribution"/>
    <cc:permits rdf:resource="http://creativecommons.org/ns#DerivativeWorks"/>
   </cc:License>
  </rdf:RDF>
 </metadata>
</svg>
