<?xml version="1.0" encoding="utf-8"?>
<!-- Generator: Adobe Illustrator 22.1.0, SVG Export Plug-In . SVG Version: 6.00 Build 0)  -->
<svg version="1.1" id="Layer_1" xmlns="http://www.w3.org/2000/svg" xmlns:xlink="http://www.w3.org/1999/xlink" x="0px" y="0px"
	 viewBox="0 0 325 28" enable-background="new 0 0 325 28" xml:space="preserve">
<polygon fill="#1D1D1B" points="15.8,3.7 10.5,21.2 5.1,3.7 1.8,3.7 0.2,24.3 2.1,24.3 3.6,5.2 9.6,24.3 11.4,24.3 17.3,5.2 
	18.9,24.3 21,24.3 19.1,3.7 "/>
<path fill="#1D1D1B" d="M260.7,12.6c-3.8-1.4-4.2-2.4-4.2-3.8c0-2.4,1.7-3.8,4.1-3.8c2.6,0,4.2,1.6,5,3.9l1.6-0.5
	c-0.9-3.2-3.3-4.9-6.6-4.9c-3.8,0-5.9,2.3-5.9,5.3c0,6.8,11.2,4.6,11.2,10.2c0,2.5-1.5,4.1-4.1,4.1c-3.3,0-5.1-1.4-5.9-4.5l-1.7,0.5
	c1.1,3.8,3.4,5.5,7.3,5.5c3.3,0,6.3-1.9,6.3-5.4C267.7,16.2,266.5,14.8,260.7,12.6z"/>
<polygon fill="#1D1D1B" points="224.4,5.3 230.5,5.3 230.5,24.3 232.4,24.3 232.4,5.3 238.5,5.3 238.5,3.8 224.4,3.8 "/>
<path fill="#1D1D1B" d="M215.6,3.8L209,24.3h2l2.1-6.7h7.8l2.1,6.7h2l-6.5-20.6H215.6z M213.6,16.1L217,5.3l3.5,10.8H213.6z"/>
<polygon fill="#1D1D1B" points="242.6,14.4 249.7,14.4 249.7,12.9 242.6,12.9 242.6,5.3 252.5,5.3 252.5,3.8 240.7,3.8 240.7,24.3 
	253,24.3 253,22.8 242.6,22.8 "/>
<rect x="204" y="3.8" fill="#1D1D1B" width="1.9" height="20.6"/>
<path fill="#1D1D1B" d="M193.7,23.1c-4.3,0-6.1-4-6.1-9c0-5,1.8-9,5.9-9c2.5,0,4.1,1.8,5,4.8l1.7-0.4c-0.9-3.3-2.9-5.9-6.6-5.9
	c-5,0-7.9,4.2-7.9,10.5c0,6.3,2.9,10.6,7.9,10.6c4.3,0,6.2-2.6,7-6.2l-1.8-0.3C198.2,20.7,197.1,23.1,193.7,23.1z"/>
<path fill="#1D1D1B" d="M124.2,3.8l-6.6,20.6h2l2.1-6.7h7.8l2.1,6.7h2l-6.5-20.6H124.2z M122.2,16.1l3.4-10.8l3.5,10.8H122.2z"/>
<path fill="#1D1D1B" d="M141.9,12.6c-3.8-1.4-4.2-2.4-4.2-3.8c0-2.4,1.7-3.8,4.1-3.8c2.6,0,4.2,1.6,5,3.9l1.6-0.5
	c-0.9-3.2-3.3-4.9-6.6-4.9c-3.8,0-5.9,2.3-5.9,5.3c0,6.8,11.2,4.6,11.2,10.2c0,2.5-1.5,4.1-4.1,4.1c-3.3,0-5.1-1.4-5.9-4.5l-1.7,0.5
	c1.1,3.8,3.4,5.5,7.3,5.5c3.3,0,6.3-1.9,6.3-5.4C148.9,16.2,147.7,14.8,141.9,12.6z"/>
<path fill="#1D1D1B" d="M157.7,12.6c-3.8-1.4-4.2-2.4-4.2-3.8c0-2.4,1.7-3.8,4.1-3.8c2.6,0,4.2,1.6,5,3.9l1.6-0.5
	c-0.9-3.2-3.3-4.9-6.6-4.9c-3.8,0-5.9,2.3-5.9,5.3c0,6.8,11.2,4.6,11.2,10.2c0,2.5-1.5,4.1-4.1,4.1c-3.3,0-5.1-1.4-5.9-4.5l-1.7,0.5
	c1.1,3.8,3.4,5.5,7.3,5.5c3.3,0,6.3-1.9,6.3-5.4C164.6,16.2,163.5,14.8,157.7,12.6z"/>
<path fill="#1D1D1B" d="M175.5,3.5c-5.2,0-8.1,4.5-8.1,10.6c0,6.1,3,10.6,8.1,10.6c5.2,0,8.1-4.5,8.1-10.6
	C183.7,8,180.7,3.5,175.5,3.5z M175.5,23.1c-3.8,0-6.2-3.2-6.2-9c0-5.8,2.5-9,6.2-9c3.8,0,6.2,3.2,6.2,9
	C181.8,19.8,179.3,23.1,175.5,23.1z"/>
<path fill-rule="evenodd" clip-rule="evenodd" fill="#FF671F" d="M307.9,12.7V0h-28v28h28V15.3h-25.5v-2.5H307.9z M293.5,17h2.5v5.9
	h-2.5V17z M289.3,17h2.5v5.9h-2.5V17z M285,17h2.5v5.9H285V17z"/>
<polygon fill="#1D1D1B" points="44.8,3.7 38,3.7 35.3,13.6 32.6,3.7 26,3.7 24.2,24.3 29.2,24.3 30.1,12.7 34.1,24.3 36.6,24.3 
	40.5,12.7 41.4,24.3 46.6,24.3 "/>
<path fill="#1D1D1B" d="M114.9,9.9c0-2-0.7-3.8-2.2-4.9c-1.3-1-3-1.3-4.6-1.3h-9v20.6h5.5v-7.9h1.7l2.6,7.9h6.1l-3.2-9
	C113.9,14.2,114.9,12.6,114.9,9.9 M109.2,10c0,1.8-1.4,2-2.6,2h-2V8.1h2.2c0.5,0,1.1,0,1.6,0.3C108.9,8.7,109.2,9.3,109.2,10"/>
<path fill="#1D1D1B" d="M65.4,14.1c0-6.2-3.3-10.7-9.2-10.7c-5.8,0-9.2,4.5-9.2,10.7c0,5.9,3.3,10.6,9.2,10.6
	C62.1,24.6,65.4,19.9,65.4,14.1 M59.2,14.1c0,2-0.2,5.8-2.9,5.8c-2.7,0-2.9-3.8-2.9-5.8c0-2,0.3-6,2.9-6C58.9,8,59.2,12.1,59.2,14.1
	"/>
<polygon fill="#1D1D1B" points="97,24.3 83.7,24.3 83.7,3.7 97,3.7 97,8.4 89,8.4 89,11.5 95.4,11.5 95.4,16 89,16 89,19.4 97,19.4 
	"/>
<path fill="#1D1D1B" d="M71.1,17.3c0.5,1.8,1.7,2.5,3.2,2.5c0.7,0,2.1-0.1,2.1-1.3c0-1.3-1.4-1.5-2.2-1.7C70.9,16.1,67,15,67,10.1
	c0-2,0.9-4,2.3-5.2c1.4-1.2,3.3-1.6,5.1-1.6c3.1,0,6,1.5,7.1,5.1L77,10C76.5,8.5,75.5,8,74.1,8c-0.7,0-1.8,0.2-1.8,1.3
	c0,1.1,1.3,1.3,2,1.5c1.7,0.4,3.5,0.7,5,1.7c1.7,1.1,2.6,3,2.6,5.3c0,5-4.2,7-7.9,7c-3.7,0-7-1.8-8-6.3L71.1,17.3z"/>
</svg>
